<svg width="16" height="16" viewBox="0 0 16 16" fill="none" xmlns="http://www.w3.org/2000/svg">
<path d="M15.0162 11.6313L9.55062 2.13938C9.39231 1.86863 9.16587 1.64406 8.89383 1.48799C8.62179 1.33193 8.31363 1.24981 8 1.24981C7.68637 1.24981 7.3782 1.33193 7.10616 1.48799C6.83412 1.64406 6.60768 1.86863 6.44937 2.13938L0.983747 11.6313C0.830134 11.894 0.749176 12.1928 0.749176 12.4972C0.749176 12.8015 0.830134 13.1004 0.983747 13.3631C1.1403 13.6352 1.36643 13.8608 1.63892 14.0166C1.91142 14.1725 2.22047 14.253 2.53437 14.25H13.4656C13.7793 14.2528 14.0881 14.1721 14.3604 14.0163C14.6326 13.8605 14.8585 13.635 15.015 13.3631C15.1688 13.1005 15.25 12.8017 15.2502 12.4974C15.2504 12.193 15.1697 11.8941 15.0162 11.6313ZM13.7162 12.6125C13.6908 12.6558 13.6542 12.6915 13.6102 12.7157C13.5662 12.7399 13.5164 12.7517 13.4662 12.75H2.53437C2.48418 12.7517 2.43445 12.7399 2.39045 12.7157C2.34644 12.6915 2.30979 12.6558 2.28437 12.6125C2.26281 12.5774 2.2514 12.5371 2.2514 12.4959C2.2514 12.4548 2.26281 12.4144 2.28437 12.3794L7.75 2.8875C7.77706 2.84584 7.81411 2.81161 7.85777 2.7879C7.90143 2.7642 7.95032 2.75179 8 2.75179C8.04968 2.75179 8.09857 2.7642 8.14223 2.7879C8.18589 2.81161 8.22293 2.84584 8.25 2.8875L13.715 12.3794C13.7367 12.4143 13.7484 12.4546 13.7486 12.4958C13.7488 12.5369 13.7376 12.5773 13.7162 12.6125ZM7.25 8.5V6.5C7.25 6.30109 7.32901 6.11032 7.46967 5.96967C7.61032 5.82902 7.80108 5.75 8 5.75C8.19891 5.75 8.38967 5.82902 8.53033 5.96967C8.67098 6.11032 8.75 6.30109 8.75 6.5V8.5C8.75 8.69891 8.67098 8.88968 8.53033 9.03033C8.38967 9.17098 8.19891 9.25 8 9.25C7.80108 9.25 7.61032 9.17098 7.46967 9.03033C7.32901 8.88968 7.25 8.69891 7.25 8.5ZM9 11C9 11.1978 8.94135 11.3911 8.83147 11.5556C8.72159 11.72 8.56541 11.8482 8.38268 11.9239C8.19995 11.9996 7.99889 12.0194 7.80491 11.9808C7.61093 11.9422 7.43274 11.847 7.29289 11.7071C7.15304 11.5673 7.0578 11.3891 7.01921 11.1951C6.98063 11.0011 7.00043 10.8 7.07612 10.6173C7.15181 10.4346 7.27998 10.2784 7.44443 10.1685C7.60888 10.0586 7.80222 10 8 10C8.26521 10 8.51957 10.1054 8.7071 10.2929C8.89464 10.4804 9 10.7348 9 11Z" fill="currentColor"/>
</svg>
