<svg width="16" height="16" viewBox="0 0 16 16" fill="none" xmlns="http://www.w3.org/2000/svg">
<path d="M12 5.99968H4V11.9997C4 12.1765 4.07029 12.3463 4.19531 12.4714C4.32034 12.5964 4.49018 12.6667 4.66699 12.6667H11.333C11.5098 12.6667 11.6797 12.5964 11.8047 12.4714C11.9297 12.3463 12 12.1765 12 11.9997V5.99968ZM9.33301 7.33366C9.70109 7.33366 9.99982 7.63164 10 7.99968C10 8.36787 9.7012 8.66667 9.33301 8.66667H6.66699C6.2988 8.66667 6 8.36787 6 7.99968C6.00018 7.63164 6.29891 7.33366 6.66699 7.33366H9.33301ZM13.333 3.99968C13.3329 3.82298 13.2626 3.65392 13.1377 3.52897C13.0127 3.40403 12.8437 3.33375 12.667 3.33366H3.33301C3.15631 3.33375 2.98725 3.40403 2.8623 3.52897C2.73736 3.65392 2.66708 3.82298 2.66699 3.99968C2.66699 4.17649 2.73728 4.34633 2.8623 4.47136C2.98724 4.5962 3.15639 4.66658 3.33301 4.66667H12.667C12.8436 4.66658 13.0128 4.5962 13.1377 4.47136C13.2627 4.34633 13.333 4.17649 13.333 3.99968ZM14.667 3.99968C14.667 4.52995 14.4559 5.0387 14.0811 5.41374C13.8683 5.6265 13.6113 5.78396 13.333 5.88249V11.9997C13.333 12.5301 13.1221 13.0387 12.7471 13.4137C12.372 13.7888 11.8634 13.9997 11.333 13.9997H4.66699C4.13656 13.9997 3.628 13.7888 3.25293 13.4137C2.87786 13.0387 2.66699 12.5301 2.66699 11.9997V5.88249C2.38866 5.78396 2.1317 5.6265 1.91895 5.41374C1.54408 5.0387 1.33301 4.52996 1.33301 3.99968C1.33309 3.46936 1.54395 2.96061 1.91895 2.58561C2.29394 2.21062 2.80269 1.99976 3.33301 1.99968H12.667C13.1973 1.99976 13.7061 2.21062 14.0811 2.58561C14.4561 2.96061 14.6669 3.46936 14.667 3.99968Z" fill="currentColor"/>
</svg>
