<svg width="16" height="16" viewBox="0 0 16 16" fill="none" xmlns="http://www.w3.org/2000/svg">
<path d="M4.85657 6.53328L2.97039 8.41936C2.66432 8.72134 2.42101 9.08088 2.25448 9.47727C2.08794 9.87366 2.00146 10.2991 2.00002 10.729C1.99858 11.159 2.0822 11.585 2.24608 11.9825C2.40996 12.38 2.65086 12.7411 2.95489 13.0452C3.25893 13.3492 3.62011 13.5901 4.01763 13.7539C4.41515 13.9178 4.84116 14.0014 5.27113 14C5.7011 13.9985 6.12654 13.9121 6.52295 13.7455C6.91937 13.579 7.27892 13.3357 7.58092 13.0297L8.20925 12.4014C8.29421 12.3194 8.36199 12.2213 8.40864 12.1129C8.45529 12.0044 8.47987 11.8877 8.48095 11.7697C8.48203 11.6516 8.45959 11.5346 8.41494 11.4253C8.37028 11.316 8.3043 11.2167 8.22086 11.1332C8.13742 11.0496 8.03817 10.9836 7.92892 10.9388C7.81967 10.8941 7.7026 10.8715 7.58454 10.8725C7.46648 10.8734 7.34979 10.8979 7.24129 10.9445C7.13279 10.991 7.03465 11.0587 6.95258 11.1436L6.32307 11.7725C6.0447 12.0483 5.66839 12.2027 5.27649 12.2018C4.88459 12.2008 4.509 12.0447 4.23193 11.7676C3.95485 11.4904 3.79884 11.1148 3.79803 10.723C3.79723 10.3311 3.9517 9.95483 4.22764 9.67655L6.11382 7.79047C6.31769 7.58652 6.57664 7.44648 6.85892 7.38752C7.14121 7.32856 7.43456 7.35324 7.70302 7.45854C7.79866 7.49647 7.88836 7.5352 7.97214 7.57471L8.24718 7.70334C8.6147 7.8693 8.89745 7.94043 9.25725 7.58123C9.77414 7.06437 9.64018 6.58721 9.01007 6.15274C8.38239 5.72085 7.62325 5.52243 6.8645 5.59195C6.10575 5.66146 5.39531 5.99452 4.85657 6.53328ZM8.41908 2.97093L7.79075 3.59923C7.62871 3.76684 7.53898 3.99139 7.54089 4.22451C7.54281 4.45764 7.63621 4.68068 7.80099 4.84561C7.96577 5.01053 8.18874 5.10414 8.42187 5.10628C8.655 5.10841 8.87964 5.0189 9.04742 4.85702L9.67634 4.22872C9.813 4.08715 9.97649 3.97422 10.1573 3.8965C10.338 3.81879 10.5325 3.77786 10.7293 3.77609C10.926 3.77433 11.1212 3.81177 11.3033 3.88622C11.4855 3.96068 11.6509 4.07066 11.7901 4.20976C11.9293 4.34885 12.0394 4.51427 12.1139 4.69636C12.1885 4.87845 12.2261 5.07357 12.2244 5.27033C12.2228 5.46708 12.1819 5.66154 12.1043 5.84236C12.0267 6.02317 11.9139 6.18671 11.7724 6.32345L9.88618 8.20953C9.68231 8.41348 9.42336 8.55352 9.14108 8.61248C8.85879 8.67143 8.56544 8.64676 8.29697 8.54146C8.20134 8.50353 8.11164 8.4648 8.02786 8.42529L7.75282 8.29666C7.3853 8.1307 7.10196 8.05957 6.74275 8.41877C6.22585 8.93563 6.35982 9.41278 6.98993 9.84726C7.61761 10.2792 8.37675 10.4776 9.1355 10.4081C9.89425 10.3385 10.6047 10.0055 11.1434 9.46672L13.0296 7.58064C13.3357 7.27866 13.579 6.91912 13.7455 6.52273C13.9121 6.12634 13.9985 5.70092 14 5.27097C14.0014 4.84102 13.9178 4.41503 13.7539 4.01753C13.59 3.62003 13.3491 3.25887 13.0451 2.95485C12.7411 2.65082 12.3799 2.40994 11.9824 2.24607C11.5849 2.0822 11.1588 1.99858 10.7289 2.00002C10.2989 2.00146 9.87346 2.08793 9.47705 2.25446C9.08063 2.42099 8.72108 2.66488 8.41908 2.97093Z" fill="currentColor"/>
</svg>
